<?xml version="1.0" encoding="utf-8"?>
<svg width="174" height="155" viewBox="0 0 174 155" xmlns="http://www.w3.org/2000/svg">
  <path stroke-width="5"
        stroke="forestgreen"
        fill="gold"
        d="M170.33 103.38C171.06 104.55 171.28 106.07 171.26 107.53C171.22 110.9 169.95 114.01 168.33 116.87C166.03 120.91 163.03 124.45 159.73 127.68C157.95 129.42 156.09 131.07 154.11 132.57C152.81 133.56 151.46 134.48 150.1 135.41C151.96 138.9 150.9 142.7 147.51 144.73C144.12 146.76 140.26 145.89 138.07 142.6C135.29 144.03 132.52 145.47 129.65 146.66C125.93 148.19 122.05 149.3 118.12 150.35C114.44 151.33 110.73 152.25 106.95 152.34C103.55 152.42 100.09 151.82 96.94 150.27C95.35 149.49 93.84 148.47 92.91 147.07C92.06 145.79 91.7 144.2 91.44 142.63C90.93 139.44 90.88 136.36 90.65 133.16C90.54 131.65 90.39 130.1 90.65 128.65C90.96 126.94 91.87 125.35 92.73 123.73C93.59 122.1 94.4 120.45 94.65 118.73C94.96 116.55 94.37 114.26 93.72 112.03C92.1 106.48 90.15 101.32 88.83 95.9C88.17 93.23 87.68 90.49 87.18 87.76C86.21 92.22 85.24 96.69 83.96 101.07C82.98 104.42 81.82 107.72 80.82 111.07C80.58 111.85 80.36 112.64 80.18 113.44C79.77 115.28 79.63 117.2 79.84 119.06C79.93 119.88 80.09 120.69 80.32 121.49C80.65 122.66 81.14 123.8 81.9 124.75C82.29 125.25 82.77 125.7 83.1 126.22C83.81 127.37 83.81 128.87 83.75 130.31C83.63 133.42 83.23 136.24 83.14 139.2C83.08 140.99 83.14 142.84 82.63 144.56C82.31 145.65 81.77 146.68 81.04 147.55C79.78 149.06 77.96 150.07 76.06 150.68C73.56 151.48 70.93 151.58 68.31 151.55C64.2 151.5 60.1 151.14 56.11 150.29C50.79 149.16 45.67 147.18 40.66 144.95C36.34 143.02 32.11 140.92 28.2 138.33C25.39 136.48 22.74 134.37 20.1 132.26C17.38 135.09 13.46 135.2 10.58 132.53C7.7 129.86 7.52 125.95 10.13 123.02C8.44 120.82 6.75 118.61 5.43 116.21C4.38 114.28 3.57 112.23 3.19 109.99C2.86 108.07 2.86 106.02 3.63 104.34C4.41 102.62 6.01 101.3 7.56 100.06C9.54 98.49 11.44 97.03 13.37 95.5C14.82 94.35 16.3 93.16 18.02 92.48C18.73 92.19 19.48 92 20.24 91.91C21.48 91.77 22.74 91.91 24.02 91.91C25.34 91.92 26.69 91.79 27.89 91.34C30.12 90.5 31.83 88.54 33.49 86.65C36.22 83.54 38.85 80.64 41.42 77.61C42.93 75.83 44.42 74 46 72.24C47.65 70.4 49.4 68.63 51.37 67.14C52.54 66.25 53.8 65.46 55.14 64.8C55.6 64.58 56.07 64.37 56.56 64.22C57.02 64.09 57.49 64.01 57.97 63.94C57.84 62.92 57.72 61.9 57.36 60.96C56.81 59.52 55.72 58.25 54.43 57.36C52.57 56.07 50.31 55.57 48.05 55.25C44.61 54.76 41.2 54.69 37.8 54.63C39.1 53.88 40.4 53.14 41.61 52.29C42.9 51.39 44.09 50.38 45.14 49.1C45.82 48.27 46.45 47.32 46.53 46.32C46.61 45.26 46.06 44.14 45.34 43.24C44.29 41.93 42.86 41.12 41.36 40.52C39.92 39.95 38.41 39.58 36.89 39.43C34.78 39.22 32.65 39.43 30.52 39.63C31.71 38.05 32.91 36.47 33.89 34.73C34.94 32.88 35.74 30.85 35.97 28.78C36.29 25.81 35.42 22.74 34.2 19.93C32.96 17.09 31.36 14.51 29.61 12.02C28.72 10.75 27.78 9.48999 26.85 8.23999C29.13 9.80999 31.41 11.38 33.57 13.08C34.96 14.18 36.31 15.34 37.78 16.36C38.94 17.17 40.17 17.89 41.55 18.21C42.92 18.54 44.44 18.48 45.72 17.94C46.82 17.47 47.76 16.63 48.58 15.73C49.54 14.69 50.36 13.55 51.17 12.42C51.15 14.31 51.13 16.2 51.31 18.18C51.5 20.25 51.89 22.42 53.2 23.9C54.32 25.18 56.12 25.95 57.88 26.16C60.12 26.42 62.31 25.79 64.37 24.96C66.08 24.27 67.71 23.43 69.34 22.6C68.9 23.94 68.46 25.29 68.24 26.68C67.95 28.53 68.04 30.46 68.58 32.27C68.98 33.62 69.63 34.91 70.58 35.94C72.11 37.61 74.4 38.62 76.66 38.89C78.97 39.17 81.25 38.69 83.97 38.08C83.66 39.09 83.17 39.98 82.9 40.93C82.63 41.9 82.6 42.94 82.58 43.97C82.57 45.05 82.57 46.12 82.58 47.2C83.23 46.36 83.88 45.53 84.41 44.63C85.47 42.85 86.08 40.81 86.39 38.73C86.67 36.85 86.7 34.93 86.35 33.1C86.05 31.53 85.45 30.01 84.86 28.49C85.64 29.21 86.41 29.92 87.37 30.49C88.44 31.13 89.74 31.58 90.86 31.37C92.65 31.01 93.95 28.91 94.55 26.88C95.31 24.25 94.9 21.75 94.12 19.38C93.33 16.99 92.17 14.73 91.01 12.48C92.12 13.75 93.22 15.03 94.7 15.81C96 16.49 97.59 16.79 99.01 16.53C101.05 16.15 102.75 14.61 104.18 12.97C106.25 10.6 107.74 8.02 109.15 5.34C109.73 4.24 110.29 3.13001 110.85 2.01001C110.61 3.90001 110.36 5.77999 110.09 7.64999C109.85 9.34999 109.59 11.05 109.57 12.79C109.55 14.38 109.74 15.99 110.38 17.41C111.15 19.14 112.58 20.56 114.16 21.68C115.94 22.95 117.9 23.82 119.87 24.69C117.96 25.89 116.06 27.09 114.31 28.53C113.16 29.47 112.09 30.51 111.48 31.9C111.14 32.68 110.94 33.57 111.13 34.35C111.35 35.3 112.14 36.09 112.96 36.76C114.03 37.64 115.14 38.31 116.31 38.89C117.6 39.53 118.97 40.05 120.35 40.57C119.17 40.98 117.99 41.39 116.92 41.99C115.36 42.85 114.03 44.12 112.7 45.38C113.52 45.55 114.35 45.72 115.2 45.87C117.21 46.21 119.38 46.37 121.21 45.65C123.25 44.84 124.88 42.93 125.91 40.89C126.58 39.57 127 38.2 127.29 36.8C127.54 35.6 127.7 34.37 127.86 33.15C128.97 34.52 130.09 35.89 131.35 37.12C132.91 38.64 134.69 39.95 136.84 40.64C138.21 41.08 139.72 41.27 140.98 40.84C142.58 40.3 143.77 38.74 144.74 37.17C146.14 34.91 147.08 32.63 148.02 30.35C148.35 32 148.67 33.66 149.53 35.1C150.54 36.77 152.27 38.15 154.13 38.68C156.59 39.38 159.27 38.59 161.8 37.78C164.16 37.03 166.38 36.25 168.66 35.52C169.78 35.17 170.92 34.82 172.05 34.48C170.18 35.83 168.31 37.18 166.53 38.62C164.29 40.41 162.19 42.33 160.2 44.49C158.93 45.87 157.7 47.35 157.08 49.05C156.46 50.75 156.45 52.68 156.49 54.56C156.52 56.09 156.58 57.58 156.85 59.05C157.07 60.23 157.43 61.4 157.79 62.56C156.01 61.62 154.23 60.69 152.35 60.16C150.64 59.69 148.85 59.55 146.96 59.65C145.01 59.75 142.94 60.09 141.69 61.45C141.03 62.16 140.6 63.14 140.49 64.1C140.22 66.4 141.82 68.55 143.21 70.54C144.04 71.73 144.8 72.86 145.56 73.99C144.01 73.52 142.47 73.06 140.93 72.56C139.21 72.01 137.51 71.41 135.74 71.01C133.97 70.6 132.14 70.39 130.37 70.62C129.23 70.77 128.11 71.1 126.99 71.44C130.12 74.66 133.26 77.88 136.14 81.33C137.65 83.14 139.1 85.01 140.74 86.69C141.94 87.91 143.24 89.03 144.69 89.99C145.76 90.7 146.9 91.32 148.11 91.57C149.67 91.88 151.33 91.57 152.94 91.7C154.92 91.86 156.83 92.7 158.55 93.72C161.86 95.67 164.53 98.32 167.6 100.74C168.62 101.55 169.68 102.33 170.33 103.38Z" />
</svg>
