<?xml version="1.0" encoding="utf-8"?>
<svg xmlns="http://www.w3.org/2000/svg"
     width="195"
     height="170"
     viewBox="0 0 195 170"
     fill="snow">
  <path
    d="M194.209 84.2817C194.339 85.9617 193.079 87.4417 191.399 87.5717H186.419C185.109 87.5717 184.039 88.6317 184.039 89.9517C184.039 90.5717 184.289 91.1717 184.719 91.6117L186.189 93.1017C187.239 94.2717 187.219 96.0617 186.149 97.2117C184.999 98.4517 183.069 98.5218 181.829 97.3718L172.889 88.2817C172.449 87.8217 171.839 87.5717 171.199 87.5717H167.389C166.079 87.5717 165.019 88.6317 165.019 89.9417C165.019 90.5717 165.259 91.1617 165.699 91.6117L171.749 97.7717C171.779 97.8017 171.809 97.8317 171.839 97.8617C172.999 99.0917 172.939 101.022 171.709 102.172C170.489 103.332 168.549 103.272 167.399 102.052L153.869 88.2817C153.419 87.8217 152.809 87.5717 152.169 87.5717H147.669C146.359 87.5717 145.289 88.6317 145.289 89.9417C145.289 90.5617 145.539 91.1617 145.979 91.6117L156.469 102.292C157.429 103.442 157.419 105.122 156.439 106.252C155.329 107.532 153.399 107.672 152.119 106.562L134.149 88.2717C133.699 87.8217 133.089 87.5618 132.449 87.5618H127.469C126.159 87.5618 125.089 88.6317 125.089 89.9417C125.089 90.5617 125.339 91.1617 125.769 91.6017L141.259 107.362C141.839 107.962 142.069 108.812 141.859 109.622C141.539 110.892 140.239 111.652 138.969 111.332L117.579 105.792C116.309 105.462 115.019 106.222 114.689 107.492C114.529 108.102 114.619 108.742 114.929 109.282L117.419 113.592C117.739 114.142 118.269 114.552 118.879 114.702L143.709 121.132C145.119 121.622 145.969 123.072 145.719 124.552C145.429 126.212 143.839 127.332 142.179 127.042L127.679 123.292C126.409 122.962 125.109 123.722 124.789 124.992C124.629 125.592 124.719 126.232 125.029 126.772L127.279 130.672C127.599 131.232 128.119 131.632 128.739 131.792L147.429 136.622C147.469 136.632 147.509 136.642 147.549 136.652C149.179 137.112 150.119 138.802 149.659 140.422C149.209 142.042 147.519 142.992 145.899 142.532L137.539 140.372C136.269 140.042 134.969 140.802 134.639 142.072C134.489 142.672 134.579 143.312 134.889 143.852L136.789 147.152C137.109 147.702 137.639 148.102 138.249 148.262L150.599 151.462C152.099 151.922 153.009 153.462 152.689 155.002C152.339 156.662 150.719 157.712 149.069 157.372L147.049 156.852C145.779 156.522 144.479 157.282 144.159 158.552C143.999 159.152 144.089 159.792 144.399 160.332L146.889 164.642C147.529 166.002 147.099 167.632 145.859 168.482C144.469 169.442 142.559 169.092 141.599 167.702L139.109 163.382C138.459 162.252 136.999 161.862 135.869 162.512C135.329 162.822 134.929 163.342 134.769 163.942L134.209 165.942C133.719 167.442 132.169 168.322 130.629 167.972C128.979 167.602 127.949 165.962 128.329 164.312L131.739 152.032C131.909 151.412 131.819 150.752 131.509 150.202L129.599 146.902C128.949 145.772 127.489 145.382 126.359 146.032C125.819 146.352 125.419 146.862 125.259 147.462L122.949 155.782C122.939 155.822 122.929 155.862 122.909 155.902C122.429 157.522 120.729 158.432 119.109 157.952C117.499 157.462 116.579 155.762 117.069 154.152L122.229 135.552C122.399 134.932 122.309 134.282 121.989 133.722L119.739 129.822C119.089 128.692 117.629 128.302 116.499 128.952C115.959 129.272 115.559 129.782 115.399 130.382L111.389 144.812C110.879 146.212 109.419 147.042 107.939 146.762C106.279 146.442 105.189 144.832 105.509 143.172L112.369 118.472C112.539 117.852 112.449 117.202 112.129 116.642L109.639 112.332C108.989 111.192 107.539 110.802 106.399 111.462C105.859 111.772 105.459 112.282 105.299 112.882L99.3892 134.172C99.1692 134.972 98.5392 135.602 97.7392 135.822C96.4692 136.172 95.1692 135.432 94.8192 134.172L88.9192 112.882C88.5692 111.612 87.2592 110.872 85.9892 111.222C85.3892 111.392 84.8792 111.792 84.5692 112.332L82.0792 116.642C81.7592 117.192 81.6792 117.852 81.8492 118.462L88.6892 143.172C88.9792 144.652 88.1492 146.112 86.7392 146.622C85.1492 147.202 83.3892 146.392 82.8092 144.802L78.8092 130.372C78.4592 129.112 77.1492 128.372 75.8892 128.722C75.2892 128.882 74.7792 129.282 74.4692 129.822L72.2092 133.722C71.8992 134.272 71.8092 134.932 71.9792 135.542L77.1392 154.142C77.1492 154.182 77.1592 154.222 77.1692 154.272C77.5892 155.902 76.5992 157.562 74.9692 157.982C73.3292 158.392 71.6692 157.412 71.2592 155.772L68.9492 147.452C68.5992 146.192 67.2892 145.452 66.0292 145.802C65.4292 145.962 64.9192 146.362 64.5992 146.902L62.6992 150.192C62.3792 150.752 62.2992 151.402 62.4692 152.022L65.8692 164.312C66.2192 165.842 65.3392 167.402 63.8492 167.892C62.2392 168.412 60.5192 167.542 59.9892 165.942L59.4292 163.932C59.0792 162.662 57.7792 161.922 56.5092 162.272C55.9092 162.442 55.3992 162.832 55.0892 163.372L52.5992 167.692C51.7492 168.922 50.1192 169.362 48.7592 168.712C47.2392 167.992 46.5892 166.162 47.3092 164.632L49.7992 160.322C50.4592 159.192 50.0692 157.732 48.9292 157.082C48.3992 156.762 47.7592 156.682 47.1492 156.832L45.1292 157.362C43.5892 157.682 42.0492 156.772 41.5892 155.272C41.0892 153.662 41.9892 151.942 43.6092 151.452L55.9492 148.252C56.5692 148.102 57.0992 147.692 57.4092 147.142L59.3192 143.842C59.9792 142.712 59.5892 141.262 58.4492 140.602C57.9092 140.292 57.2692 140.202 56.6692 140.362L48.3092 142.522C48.2692 142.532 48.2192 142.542 48.1792 142.552C46.5392 142.942 44.8992 141.922 44.5092 140.282C44.1192 138.642 45.1392 137.002 46.7792 136.612L65.4692 131.782C66.0792 131.622 66.6092 131.222 66.9292 130.672L69.1792 126.772C69.8392 125.632 69.4492 124.182 68.3092 123.522C67.7692 123.212 67.1292 123.122 66.5292 123.282L52.0292 127.032C50.5592 127.282 49.1092 126.432 48.6192 125.012C48.0592 123.422 48.9092 121.672 50.5092 121.122L75.3292 114.702C75.9492 114.542 76.4692 114.142 76.7892 113.592L79.2792 109.272C79.9392 108.142 79.5492 106.682 78.4192 106.032C77.8792 105.722 77.2392 105.632 76.6292 105.792L55.2392 111.322C54.4392 111.522 53.5792 111.292 52.9792 110.712C52.0492 109.792 52.0392 108.292 52.9592 107.352L68.4392 91.6017C69.3592 90.6617 69.3492 89.1618 68.4092 88.2418C67.9692 87.8018 67.3692 87.5618 66.7492 87.5618H61.7692C61.1292 87.5618 60.5192 87.8117 60.0692 88.2717L42.0992 106.552C40.9592 107.532 39.2792 107.552 38.1292 106.592C36.8292 105.502 36.6592 103.572 37.7492 102.272L48.2392 91.5917C49.1592 90.6617 49.1492 89.1618 48.2092 88.2418C47.7692 87.8018 47.1692 87.5518 46.5492 87.5518H42.0392C41.4092 87.5518 40.7992 87.8117 40.3492 88.2617L26.8192 102.032C26.7892 102.062 26.7592 102.092 26.7292 102.122C25.5192 103.302 23.5892 103.272 22.4092 102.072C21.2392 100.862 21.2592 98.9318 22.4692 97.7518L28.5192 91.5917C29.4392 90.6617 29.4292 89.1517 28.4892 88.2317C28.0492 87.8017 27.4492 87.5518 26.8292 87.5518H23.0192C22.3792 87.5518 21.7692 87.8117 21.3192 88.2617L12.3792 97.3617C11.2292 98.4317 9.44922 98.4417 8.26922 97.3917C7.00922 96.2617 6.90922 94.3317 8.02922 93.0817L9.48922 91.5917C10.4092 90.6517 10.3992 89.1517 9.46922 88.2317C9.01922 87.7917 8.41922 87.5518 7.79922 87.5518H2.81922C1.31922 87.4318 0.12922 86.2418 0.0092204 84.7418C-0.12078 83.0618 1.13922 81.5817 2.81922 81.4517H7.79922C9.10922 81.4517 10.1792 80.3817 10.1792 79.0717C10.1792 78.4517 9.92922 77.8517 9.49922 77.4117L8.02922 75.9217C6.97922 74.7417 6.99922 72.9618 8.06922 71.8118C9.21922 70.5718 11.1492 70.4917 12.3892 71.6417L21.3292 80.7418C21.7692 81.1918 22.3792 81.4517 23.0192 81.4517H26.8292C28.1392 81.4517 29.1992 80.3917 29.1992 79.0717C29.1992 78.4517 28.9592 77.8517 28.5192 77.4117L22.4692 71.2518C22.4392 71.2218 22.4092 71.1917 22.3792 71.1617C21.2192 69.9317 21.2792 68.0017 22.5092 66.8417C23.7292 65.6917 25.6692 65.7417 26.8192 66.9717L40.3492 80.7418C40.7992 81.1918 41.4092 81.4517 42.0492 81.4517H46.5492C47.8592 81.4517 48.9192 80.3917 48.9292 79.0817C48.9292 78.4517 48.6792 77.8617 48.2392 77.4117L37.7492 66.7317C36.7892 65.5817 36.7992 63.9017 37.7792 62.7717C38.8892 61.4917 40.8192 61.3517 42.0992 62.4517L60.0692 80.7418C60.5192 81.2018 61.1292 81.4517 61.7692 81.4517H66.7492C68.0592 81.4517 69.1292 80.3917 69.1292 79.0817C69.1292 78.4617 68.8792 77.8617 68.4392 77.4117L52.9592 61.6617C52.3792 61.0617 52.1492 60.2017 52.3592 59.4017C52.6792 58.1317 53.9792 57.3617 55.2492 57.6917L76.6392 63.2317C77.9092 63.5617 79.1992 62.7917 79.5292 61.5217C79.6892 60.9217 79.5992 60.2818 79.2892 59.7418L76.7992 55.4217C76.4792 54.8717 75.9492 54.4718 75.3392 54.3118L50.5092 47.8917C49.0992 47.4017 48.2492 45.9517 48.4992 44.4717C48.7892 42.8017 50.3792 41.6917 52.0392 41.9817L66.5392 45.7317C67.8092 46.0617 69.1092 45.3017 69.4292 44.0317C69.5892 43.4217 69.4992 42.7818 69.1892 42.2418L66.9392 38.3417C66.6192 37.7917 66.0892 37.3917 65.4792 37.2317L46.7892 32.3917C46.7492 32.3817 46.7092 32.3717 46.6692 32.3617C45.0392 31.9117 44.0992 30.2217 44.5492 28.6017C45.0092 26.9817 46.6992 26.0318 48.3192 26.4918L56.6792 28.6517C57.9492 28.9817 59.2492 28.2217 59.5792 26.9517C59.7292 26.3417 59.6392 25.7017 59.3292 25.1617L57.4292 21.8617C57.1092 21.3117 56.5792 20.9118 55.9692 20.7518L43.6192 17.5618C42.1092 17.0918 41.2092 15.5617 41.5292 14.0117C41.8792 12.3617 43.4992 11.3017 45.1492 11.6517L47.1692 12.1717C48.4392 12.5017 49.7392 11.7417 50.0592 10.4717C50.2192 9.86173 50.1292 9.22176 49.8192 8.68176L47.3292 4.37176C46.6892 3.01176 47.1192 1.39174 48.3592 0.541741C49.7492 -0.418259 51.6592 -0.0682908 52.6192 1.32171L55.1092 5.63171C55.7592 6.77171 57.2192 7.16176 58.3492 6.50176C58.8892 6.19176 59.2892 5.68172 59.4492 5.08172L60.0092 3.07171C60.4992 1.57171 62.0492 0.701751 63.5892 1.05175C65.2392 1.42175 66.2692 3.06171 65.8892 4.70171L62.4792 16.9918C62.3092 17.6118 62.3992 18.2618 62.7092 18.8118L64.6192 22.1117C65.2692 23.2517 66.7292 23.6417 67.8592 22.9817C68.3992 22.6717 68.7992 22.1618 68.9592 21.5618L71.2692 13.2418C71.2792 13.2018 71.2892 13.1618 71.3092 13.1218C71.7892 11.5018 73.4892 10.5817 75.1092 11.0717C76.7192 11.5517 77.6392 13.2518 77.1492 14.8718L71.9892 33.4717C71.8192 34.0817 71.9092 34.7417 72.2292 35.2917L74.4792 39.1917C75.1292 40.3317 76.5892 40.7218 77.7192 40.0618C78.2592 39.7518 78.6592 39.2417 78.8192 38.6417L82.8292 24.2117C83.3392 22.8017 84.7992 21.9817 86.2792 22.2617C87.9392 22.5817 89.0292 24.1817 88.7092 25.8417L81.8492 50.5518C81.6792 51.1618 81.7692 51.8218 82.0792 52.3718L84.5792 56.6917C85.2292 57.8217 86.6792 58.2118 87.8192 57.5618C88.3592 57.2518 88.7592 56.7417 88.9192 56.1417L94.8292 34.8517C95.0492 34.0417 95.6792 33.4217 96.4792 33.1917C97.7492 32.8417 99.0492 33.5817 99.3992 34.8517L105.299 56.1417C105.649 57.4017 106.959 58.1417 108.229 57.7917C108.829 57.6317 109.339 57.2317 109.649 56.6917L112.139 52.3817C112.459 51.8217 112.539 51.1718 112.369 50.5518L105.529 25.8417C105.239 24.3717 106.069 22.9117 107.479 22.3917C109.069 21.8117 110.829 22.6317 111.409 24.2117L115.409 38.6417C115.759 39.9117 117.069 40.6518 118.329 40.3018C118.929 40.1318 119.439 39.7417 119.749 39.2017L122.009 35.3018C122.319 34.7518 122.409 34.0917 122.239 33.4817L117.079 14.8718C117.069 14.8318 117.059 14.7918 117.049 14.7518C116.629 13.1218 117.619 11.4617 119.249 11.0417C120.889 10.6217 122.549 11.6118 122.959 13.2418L125.269 21.5717C125.619 22.8317 126.929 23.5717 128.189 23.2217C128.789 23.0517 129.299 22.6618 129.619 22.1218L131.519 18.8217C131.839 18.2717 131.919 17.6118 131.749 17.0018L128.349 4.71172C127.999 3.17172 128.879 1.62171 130.369 1.13171C131.979 0.601707 133.699 1.48172 134.229 3.08172L134.789 5.09173C135.139 6.35173 136.439 7.09175 137.709 6.74175C138.309 6.58175 138.819 6.18172 139.129 5.64172L141.619 1.33172C142.469 0.0917189 144.099 -0.338249 145.459 0.301751C146.979 1.03175 147.629 2.86171 146.909 4.38171L144.419 8.70171C143.759 9.83171 144.149 11.2817 145.289 11.9417C145.819 12.2517 146.459 12.3418 147.069 12.1818L149.089 11.6617C150.629 11.3417 152.169 12.2418 152.629 13.7518C153.129 15.3618 152.229 17.0717 150.609 17.5717L138.269 20.7617C137.649 20.9217 137.119 21.3218 136.809 21.8718L134.899 25.1717C134.239 26.3117 134.629 27.7617 135.769 28.4217C136.309 28.7317 136.949 28.8217 137.549 28.6617L145.909 26.5018C145.949 26.4918 145.999 26.4817 146.039 26.4717C147.679 26.0817 149.319 27.0917 149.709 28.7317C150.099 30.3717 149.079 32.0217 147.439 32.4117L128.749 37.2418C128.139 37.4018 127.609 37.8017 127.289 38.3517L125.039 42.2518C124.379 43.3918 124.769 44.8418 125.909 45.5018C126.449 45.8118 127.089 45.8918 127.689 45.7418L142.189 41.9918C143.659 41.7318 145.109 42.5818 145.599 44.0018C146.159 45.6018 145.309 47.3417 143.709 47.9017L118.889 54.3217C118.269 54.4817 117.749 54.8818 117.429 55.4318L114.939 59.7418C114.279 60.8818 114.669 62.3318 115.799 62.9918C116.339 63.3018 116.979 63.3917 117.589 63.2317L138.979 57.7017C139.779 57.4917 140.639 57.7218 141.239 58.3118C142.169 59.2318 142.179 60.7317 141.259 61.6717L125.779 77.4217C124.859 78.3617 124.869 79.8617 125.809 80.7817C126.249 81.2217 126.849 81.4617 127.469 81.4617H132.449C133.089 81.4617 133.699 81.2118 134.149 80.7518L152.119 62.4717C153.259 61.4817 154.939 61.4718 156.089 62.4318C157.389 63.5218 157.559 65.4518 156.469 66.7418L145.979 77.4217C145.059 78.3617 145.069 79.8617 146.009 80.7817C146.449 81.2217 147.049 81.4617 147.669 81.4617H152.169C152.809 81.4617 153.419 81.2118 153.869 80.7518L167.399 66.9918C167.429 66.9618 167.459 66.9317 167.489 66.9017C168.699 65.7217 170.629 65.7417 171.809 66.9517C172.979 68.1617 172.959 70.0917 171.749 71.2717L165.699 77.4217C164.779 78.3617 164.789 79.8617 165.729 80.7817C166.169 81.2217 166.769 81.4617 167.389 81.4617L171.199 81.4717C171.839 81.4717 172.449 81.2117 172.899 80.7617L181.839 71.6617C182.989 70.5917 184.769 70.5717 185.949 71.6317C187.209 72.7517 187.309 74.6817 186.189 75.9417L184.729 77.4318C183.809 78.3618 183.819 79.8717 184.749 80.7917C185.199 81.2217 185.799 81.4717 186.419 81.4717H191.399C192.899 81.5917 194.089 82.7817 194.209 84.2817ZM123.709 99.3517C123.849 98.7917 123.689 98.1917 123.279 97.7717L113.739 88.0618C113.419 87.7418 112.999 87.5618 112.549 87.5618H105.269C104.359 87.5618 103.609 88.3017 103.609 89.2217C103.609 89.5117 103.689 89.8018 103.829 90.0518L107.469 96.3617C107.689 96.7417 108.059 97.0217 108.489 97.1317L121.679 100.552C122.569 100.782 123.479 100.242 123.709 99.3517ZM123.279 71.2518C123.929 70.5918 123.919 69.5417 123.259 68.9017C122.849 68.4917 122.249 68.3317 121.679 68.4817L108.499 71.8917C108.069 72.0017 107.699 72.2817 107.469 72.6617L103.829 78.9717C103.379 79.7617 103.649 80.7818 104.439 81.2418C104.699 81.3818 104.979 81.4617 105.269 81.4617H112.549C112.999 81.4617 113.419 81.2817 113.739 80.9617L123.279 71.2518ZM102.189 69.6117C102.409 69.2217 102.469 68.7717 102.349 68.3417L98.7092 55.2117C98.4692 54.3317 97.5492 53.8118 96.6692 54.0518C96.1092 54.2118 95.6692 54.6517 95.5092 55.2117L91.8692 68.3317C91.7492 68.7617 91.8092 69.2217 92.0292 69.6117L95.6692 75.9117C96.1292 76.7117 97.1492 76.9817 97.9392 76.5217C98.1892 76.3817 98.3992 76.1717 98.5492 75.9117L102.189 69.6117ZM102.349 100.682C102.469 100.252 102.409 99.7917 102.189 99.4117L98.5492 93.1017C98.0892 92.3117 97.0692 92.0418 96.2792 92.5018C96.0292 92.6418 95.8192 92.8517 95.6692 93.1017L92.0292 99.4117C91.8092 99.7917 91.7492 100.252 91.8692 100.682L95.5092 113.812C95.7492 114.692 96.6692 115.212 97.5492 114.962C98.1092 114.812 98.5492 114.372 98.7092 113.812L102.349 100.682ZM90.3892 90.0518C90.8392 89.2618 90.5692 88.2417 89.7792 87.7817C89.5192 87.6417 89.2392 87.5618 88.9492 87.5618H81.6692C81.2192 87.5618 80.7992 87.7418 80.4792 88.0518L70.9292 97.7717C70.2892 98.4217 70.2992 99.4718 70.9592 100.122C71.3692 100.532 71.9692 100.692 72.5392 100.542L85.7192 97.1317C86.1492 97.0217 86.5192 96.7417 86.7492 96.3517L90.3892 90.0518ZM90.6092 79.7917C90.6092 79.5017 90.5292 79.2217 90.3892 78.9617L86.7492 72.6617C86.5292 72.2717 86.1592 71.9917 85.7292 71.8817L72.5392 68.4717C71.6492 68.2417 70.7392 68.7717 70.5092 69.6617C70.3692 70.2317 70.5292 70.8318 70.9392 71.2418L80.4792 80.9617C80.7992 81.2817 81.2192 81.4617 81.6692 81.4617H88.9492C89.8592 81.4617 90.6092 80.7117 90.6092 79.7917Z" />
</svg>
