<?xml version="1.0" encoding="utf-8"?>
<svg width="639" height="1020" viewBox="0 0 639 801" xmlns="http://www.w3.org/2000/svg">
  <path stroke-width="9"
        stroke="#a00"
        fill="#2b2"
        d="M631.9 811C628 803.4 620.2 799.8 611.9 801.7C609.8 799.2 607.7 796.6 605.5 794.2C600.2 788.3 594.5 782.7 588.4 777.7C595.7 771.1 602.9 764.6 610.2 758C600.2 756.7 590.2 755.4 580.2 754.1C576.7 746.1 573.1 738.2 569.5 730.2C576.4 725.1 583.3 720.1 590.3 715C599.6 718.8 609 722.6 618.3 726.5C615.1 716.9 612 707.3 608.8 697.8C615.3 690.1 621.8 682.4 628.3 674.7C618.2 674.7 608.1 674.8 598 674.8C592.7 666.2 587.4 657.6 582.1 649.1C579 658.7 575.9 668.3 572.9 677.9C565.3 679.7 557.8 681.6 550.2 683.4C548.6 678.3 546.5 673.4 543.7 668.8C540.4 663.3 536.3 658.3 531.5 654.2C529.4 652.4 527.2 650.8 525.1 649.1C529.8 648.3 534.5 647.5 539 645.9C548.5 642.5 557 635.3 562.5 626.6C566.8 619.8 569.3 612.1 569.8 604.2C570.5 593.6 567.6 582.5 561.8 573.7C558 567.9 552.9 563 547.2 559C543.8 556.6 540.2 554.5 536.5 552.8C534.2 551.8 531.8 550.9 529.5 550C538.3 547.3 544.4 543.7 549.6 539C555.5 533.7 560.3 527 563.4 519.3C566.1 512.5 567.6 504.9 567.4 497.5C567.1 486.1 562.9 475.2 556.1 466.5C551.9 461.1 546.8 456.5 541 453C535.8 449.9 530.1 447.7 524.2 446.7C520.8 446.1 517.3 446 513.8 445.8C515.6 444 517.3 442.2 518.9 440.2C521.6 436.7 523.6 432.7 524.8 428.4C526.6 422 526.8 415.2 525.5 408.7C524.5 403.6 522.5 398.7 519.7 394.3C515.5 387.9 509.4 382.5 502.4 379.7C496.4 377.2 489.7 376.7 482.7 378C476.5 379.2 470.1 381.8 465.7 386.4C462.9 389.4 461 393.2 460.5 397.4C460.1 401.6 461.1 406.2 463.9 409.2C466.4 411.9 470.2 413.3 473.8 413.2C477.1 413.1 480.1 411.6 482.3 409.4C484.3 407.4 485.7 404.9 486.3 401.8C486.9 398.8 486.7 395.4 486.1 392.8C487.5 392.4 488.9 392 490.3 391.9C494.5 391.5 499 393.3 502.5 396C507.6 399.9 510.9 405.7 511.8 412C513.1 420.5 510 429.9 503.9 435.9C498.6 441.1 491 443.8 483.5 443.8C476.2 443.8 469 441.5 463.3 437.1C457.7 432.9 453.5 426.9 451.1 420.3C448.6 413.5 448 406 449.3 398.8C450.4 392.5 452.9 386.5 456.6 381.5C460.9 375.8 466.9 371.6 472 366.6C479 359.7 484.4 351.2 488.1 342C493.7 328 495.4 312.4 492.7 297.7C491.4 290.4 488.9 283.3 485.6 276.7C481.4 268.4 475.6 261 468.9 254.5C458.4 244.3 445.5 236.6 431.6 232C423.8 229.5 415.8 227.9 407.6 227.4C414.1 218.3 420.6 209.3 427.1 200.2C440 201.1 452.9 202.1 465.8 203C458.1 192.6 450.5 182.2 442.8 171.8C447.7 159.8 452.6 147.9 457.4 135.9C445.1 140 432.9 144 420.6 148.1C413.5 142.1 406.5 136.2 399.4 130.2C406.8 128.7 413.8 124.9 419 119.4C424 114.1 427.3 107.2 428.6 100C430.5 89.1 427.9 77.4 422 68C416.6 59.5 408.5 53 399.2 49C389.4 44.8 378.5 43.4 368 45.2C362 46.2 356.3 48.2 351 51.1C349.4 52 347.5 51.9 346.1 50.7C344.7 49.5 344.1 47.8 344.6 46C349.8 28.4 358.9 11.4 359.7 -5.29998C360.1 -15.4 357.5 -25.4 353.3 -35.3C361.3 -34.7 369.3 -34 377.3 -33.4C370.6 -42.6 364 -51.8 357.3 -61C361.7 -71.5 366 -81.9 370.4 -92.4C359.6 -88.9 348.8 -85.4 338 -81.9C329.4 -89.3 320.8 -96.7 312.2 -104.1C312.2 -92.8 312.2 -81.4 312.1 -70.1C302.4 -64.2 292.7 -58.3 283.1 -52.4C293.9 -48.9 304.7 -45.3 315.4 -41.8C318 -30.8 320.7 -19.7 323.3 -8.69997C328 -15.1 332.7 -21.6 337.4 -28C339.7 -20.2 340.9 -12.5 340.2 -4.79998C339.5 3.30002 336.9 11.3 333.7 19.5C332.9 21.7 331 23.1 328.7 23.4C326.4 23.7 324.2 22.8 322.8 21C321 18.6 319.2 16.2 317.4 13.9C315.6 11.6 315.1 8.70002 316 5.90002C318.3 -1.29998 315.8 -8.49997 309.6 -12.9C303.4 -17.3 295.8 -17.1 289.8 -12.5C283.8 -7.89998 281.6 -0.599977 284.2 6.50002C286.8 13.6 293.1 17.9 300.6 17.6C303.5 17.5 306.2 18.7 307.9 21C310.6 24.6 313.3 28.1 316 31.7C321 38.2 322.6 46.2 320.5 54.2C315.4 74 315.6 94.7 319.6 114.5C312.2 110.7 304.8 107 297.3 103.2C296.4 91.9 295.5 80.6 294.6 69.3C286.6 77.3 278.6 85.4 270.6 93.4C259.6 90.8 248.5 88.1 237.5 85.5C242.7 95.6 247.8 105.7 253 115.8C247.1 125.5 241.2 135.2 235.3 144.9C246.5 143.1 257.7 141.3 268.9 139.5C273.9 145.3 278.9 151.2 283.9 157C279.6 155.1 275.1 153.6 270.5 152.6C257.5 149.9 243.6 151.2 231.3 156.4C220.6 160.9 211.1 168.2 204 177.3C197.8 185.4 193.5 194.9 191.5 204.9C189.1 217 190.3 229.9 194.9 241.5C199.1 252.1 206.3 261.6 215.7 268.3C215.8 268.4 216 268.5 216.1 268.6C209.6 272.1 203.2 275.6 196.8 279C185.9 272.7 175 266.3 164.1 260C166.4 272.4 168.6 284.8 170.9 297.2C161.5 305.6 152.1 314 142.7 322.4C155.2 324.1 167.7 325.8 180.2 327.4C185.3 338.9 190.4 350.5 195.5 362C201 350.6 206.4 339.3 211.9 327.9C221.6 326.9 231.3 325.9 241 324.9C243.8 327.1 246.5 329.3 249.1 331.7C250.8 333.3 252.5 335 254.1 336.7C257.3 340.1 260.4 343.5 263.5 347C264.1 347.7 264.3 348.7 264 349.6C263.6 350.5 262.9 351.1 261.9 351.2C259 351.5 256.2 351.8 253.3 352.1C250.3 344.8 243.2 341.2 235.5 343.2C227.8 345.1 223.3 351.6 224.1 359.5C224.9 367.4 230.7 372.8 238.6 373.1C246.5 373.4 252.7 368.5 254.2 360.7C258.4 360.3 262.6 359.8 266.8 359.4C271.1 359 275.1 360.6 277.9 363.9C280.1 366.5 282.2 369.1 284.4 371.7C286.5 374.2 287.5 377.2 287.4 380.5C287.2 384.5 287.2 388.4 287.4 392.3C283.9 389.8 280.2 387.6 276.3 385.8C266.5 381.2 255.6 378.9 244.7 379.3C235.2 379.6 225.7 382.1 217.5 386.6C213 389.1 208.9 392.3 204.8 395.4C203.3 389.4 201.9 383.3 199.2 377.8C195.7 370.9 190.2 364.8 183.6 360.4C175.4 354.9 165.6 351.9 155.8 352.2C148.7 352.4 141.7 354.4 135.5 358C130 361.2 125.1 365.6 121.6 370.9C117.9 376.5 115.6 383.1 115 389.8C114.4 396.3 115.4 403 117.9 408.9C119.9 413.4 122.8 417.6 126.6 420.8C131.2 424.7 137.1 427.2 143.1 428C149.9 428.9 156.8 427.7 163.1 424.5C166.6 422.7 169.9 420.3 171.9 416.8C173.7 413.5 174.4 409.2 173.2 405.5C172.4 402.9 170.8 400.6 168.7 399.1C165.8 397 161.9 396.5 158.5 397.3C154.9 398.1 151.7 400.3 149.7 403.1C148.4 404.9 147.5 407 147.1 409.1C146.8 410.6 146.7 412.1 146.7 413.7C144.2 414 141.8 413.9 139.6 413.1C135.6 411.6 132.6 407.6 130.7 403.4C128.6 398.5 128.3 393.2 129.3 388.2C130.3 383.2 132.8 378.3 136.4 374.7C140.1 370.9 145 368.3 150.2 367C155.4 365.7 160.9 365.7 166 367.1C172.5 368.9 178.4 372.9 182.8 378.1C187 383 189.9 389.1 190.9 395.3C192 402.6 190.4 410.2 187.8 417.2C185.4 423.5 182.1 429.2 179.6 435.3C174.4 447.8 172.6 461.9 172.8 475.7C172.9 485.2 174 494.5 176.4 503.6C176.7 504.7 177 505.7 177.3 506.8C170.1 505.9 162.9 505.1 155.7 504.2C150.9 493.9 146.2 483.6 141.4 473.3C136.6 483.6 131.9 493.9 127.1 504.2C115.8 505.5 104.6 506.9 93.3 508.2C101.6 515.9 110 523.6 118.3 531.3C116.1 542.4 113.9 553.6 111.7 564.7C121.6 559.2 131.5 553.6 141.4 548.1C147.9 551.7 154.4 555.4 160.9 559C148.7 561.9 136.9 566.9 125.9 573.4C123.5 574.8 120.8 575.4 118.1 575.1C115.3 574.8 112.4 574.5 109.6 574.4C105.6 574.3 101.6 574.4 97.6 574.7C95.5 574.8 93.6 574 92.3 572.4C88.5 567.8 82.8 566.2 77.2 568.2C71.6 570.2 68.2 575.1 68.2 581.1C68.3 587.1 71.7 591.9 77.4 593.8C83 595.7 88.8 594 92.4 589.3C93.5 587.9 95.1 587 96.9 586.9C97.9 586.8 98.8 586.8 99.8 586.8C101.2 586.8 102.6 587 103.9 587.2C104.3 587.3 104.7 587.5 104.8 588C104.9 588.4 104.8 588.8 104.5 589.1C95 597.6 86.8 607.3 80.3 618.2C72 632.1 66.6 647.8 64.2 663.9C63.8 666.3 62.7 668.5 61 670.3C59.7 671.6 58.3 673 57 674.3C56.1 675.2 55.2 676.2 54.2 677.1C52.5 678.8 50.1 679.2 48 677.9C41.3 673.9 33.6 674.7 27.9 679.9C22.2 685.1 20.7 692.7 24 699.7C27.3 706.7 34.2 710.3 41.8 709.2C49.4 708.1 54.9 702.6 56.1 694.9C56.3 693.7 56.8 692.7 57.7 691.9C57.9 691.7 58.2 691.5 58.4 691.3C58.6 691.1 58.8 691 58.9 690.8C59.6 690.1 60.6 690 61.5 690.3C62.4 690.7 63 691.5 63.1 692.5C63.9 703.6 66.1 714.6 69.6 725.1C73 735.2 77.6 744.9 83.4 753.9C78.2 755.2 73 756.5 67.8 757.8C59.7 749.8 51.7 741.9 43.6 733.9C42.8 745.2 42 756.5 41.1 767.9C31 773.1 21 778.3 10.9 783.6C21.4 787.9 31.9 792.1 42.4 796.4C44.3 807.6 46.1 818.8 47.9 830C55.2 821.3 62.5 812.6 69.8 804C81 805.7 92.2 807.4 103.5 809.1C97.5 799.5 91.5 789.8 85.5 780.2C87.8 775.5 90.1 770.9 92.5 766.3C93.2 767.1 94 768 94.7 768.8C102.6 777.4 112 784.8 122.3 790.1C126.8 792.4 130.4 795.9 132.9 800.4C135.4 804.9 138 809.4 140.8 813.7C142.2 815.8 143.6 817.9 145.1 819.9C147.1 822.8 147.7 826.3 146.7 829.7C144.1 838.4 148.4 846.3 157.1 849C165.7 851.6 173.7 847.4 176.5 838.8C179.2 830.2 175.1 822.1 166.5 819.3C163.9 818.4 161.8 816.7 160.4 814.4C159.4 812.8 158.5 811.1 157.6 809.5C157.2 808.7 156.8 807.8 156.4 807C155.6 805.4 155.8 803.6 156.8 802.1C157.8 800.6 159.3 799.8 161.1 799.8C167.6 800 174 799.4 180.3 798.2C192.6 795.8 204.2 790.7 214.6 783.7C218.1 790.5 221.6 797.4 225.1 804.2C219.2 813.9 213.3 823.6 207.4 833.3C218.6 831.5 229.8 829.7 241 827.9C248.4 836.5 255.8 845.1 263.2 853.7C264.9 842.5 266.7 831.3 268.4 820.1C276 816.9 283.7 813.7 291.3 810.5C292.4 815.2 293.8 820.2 295.3 825C298.6 835.3 302.4 844.7 313.8 865.9C314.9 868 316.1 870.2 331 895.7C350.2 895.7 369.4 895.7 388.6 895.7C378 878.5 374.8 873.7 371.9 869.4C354.5 843.5 349 835.1 344.1 825.6C341.5 820.6 339.1 815.2 336.9 809.8C333 800 333.3 789.4 337.8 779.8C342.3 770.2 350.2 763.2 360.3 759.9C364.9 758.4 369.6 757.4 374.4 756.9C381.7 756.2 389.2 756.9 396.4 758.8C406.5 761.4 413.3 769.3 414.4 779.7C414.7 782.9 414.8 785.4 414.7 788.2C414.5 793.3 413.8 799.3 411.4 804.8C409.7 808.6 407.1 812.1 403.6 815C399.2 818.6 393.3 821.1 387.6 821.1C383.1 821.1 378.7 819.4 375.3 816.8C372.8 814.9 370.8 812.5 369.3 809.8C367.4 806.3 366.3 802.2 366.8 798.3C367.2 794.7 369 791.3 371.5 788.5C374.7 785 379 782.7 383.5 781.9C386.1 781.5 388.7 781.6 391.3 781.8C391.8 784.4 392.7 785.8 393.9 786.8C395.7 788.4 398.1 788.8 400.4 788.7C402.1 788.7 403.8 788.4 405.3 787.4C406.7 786.5 407.9 785.1 408.6 783.5C409.8 780.8 409.5 777.7 408.2 775.4C407.4 773.9 406.2 772.7 404.8 771.8C402.6 770.3 400.1 769.5 397.5 769C392.7 768.1 388 768.3 383.2 769.3C377.3 770.4 371.5 772.6 366.6 776.1C361 780.1 356.7 785.9 355.1 792.7C353.5 799.4 354.5 807.1 357.4 813.5C359.8 818.9 363.5 823.5 368.2 827C373.9 831.2 381.1 833.8 388.4 833.7C396.6 833.7 405.1 830.4 411.3 825.7C416.1 822.1 419.7 817.6 422.2 812.3C424.7 806.9 426.2 800.6 426.8 794C427.4 786.7 426.9 779 426.1 772.3C429.6 774.1 433.2 775.9 436.8 777.6C437.8 778.1 438.6 778.9 439.1 779.9C442.8 788.6 446.4 797.3 450.2 805.9C451.5 808.9 452.8 811.8 454.1 814.8C454.8 816.4 454.6 818.1 453.4 819.4C447.4 826.5 447 835.8 452.5 843.4C458 851 466.9 853.6 475.5 850.1C484.2 846.7 488.8 838.6 487.6 829.4C486.3 820.2 479.7 813.7 470.4 812.6C468.8 812.4 467.4 811.4 466.8 809.9C466.3 808.8 465.9 807.7 465.4 806.6C463.3 801.3 461.3 795.9 459.4 790.5C458.9 789.1 459.1 787.5 460.1 786.3C461 785.1 462.4 784.5 463.9 784.6C466.3 784.8 468.7 784.9 471.2 784.9C483 784.8 494.8 782 505.6 777.1C512.1 774.1 518.3 770.4 523.9 766C525.4 764.8 527.2 764.6 528.9 765.3C531.3 766.3 532.9 766.9 534.6 767.6C536 768.2 537.4 769 538.5 770.1C541.3 772.7 544.1 775.4 546.8 778C544.7 787.9 542.6 797.7 540.6 807.6C549.5 802.8 558.3 797.9 567.2 793.1C575.9 798.1 584.7 803.1 593.4 808.2C595.2 809.6 597.1 811.7 598.8 813.9C596.2 822 599 830.1 606.2 834.7C613.4 839.3 621.9 838.6 628.2 832.9C634.5 827.2 635.8 818.5 631.9 811ZM532.7 569.1C540.5 573.3 547.4 579.6 550.9 587.6C554.1 594.8 554.5 603.4 551.9 611C549.8 617.4 545.5 623 540.1 626.8C534.9 630.5 528.7 632.7 522.2 632.9C516.5 633.1 510.8 631.7 506.3 628.3C502.6 625.4 499.8 621.2 499.3 616.4C499 613.3 499.6 610 501.4 607.6C502.4 606.3 503.8 605.2 505.4 604.6C506.5 604.2 507.7 604 508.8 603.8C509.6 605.2 510.5 606.5 511.5 607.8C513.1 609.8 515 611.7 517.4 612.8C519.7 613.9 522.4 614.3 525.1 614.1C527.6 613.8 529.9 613 531.9 611.4C534.4 609.3 536.1 605.9 536.2 602.2C536.3 598.5 534.8 594.6 532.6 591.6C530 588.1 526.5 585.9 522.9 584.6C516.3 582.4 509.1 583.2 502.7 585.9C498.6 587.7 494.9 590.2 491.8 593.4C487.8 597.5 485 602.6 483.7 607.9C483 610.8 482.8 613.8 482.9 616.7C483.1 620.2 483.9 623.7 485.2 627C486 628.9 486.9 630.7 488 632.3C489.3 634.2 490.7 635.9 492.2 637.6C485.9 637.9 479.6 638.2 473.6 639.9C468.8 641.2 464.2 643.4 460 646.2C457.2 639.4 454.3 632.7 451.5 625.9C458.9 615.7 466.3 605.4 473.6 595.2C461 596.2 448.5 597.2 435.9 598.3C428.5 588.1 421 578 413.6 567.8C410.7 580.1 407.8 592.3 404.9 604.6C392.9 608.5 380.9 612.5 369 616.4C377.5 621.6 386.1 626.8 394.6 632C387.5 636 380.4 640.1 373.3 644C367.8 647 362.2 650 356.7 652.9C355.2 653.7 353.6 653.4 352.4 652.3C351.2 651.2 350.9 649.5 351.5 648C357 635.7 362.1 623.4 365.6 610.5C368.3 600.5 370 590.2 370.8 579.8C377.1 576 383.5 572.2 390.3 569.5C403 564.5 417.2 563.3 431 563.1C441.8 562.9 452.4 563.4 463.1 563C476.7 562.5 490.3 560.9 503.9 561.7C513.8 562.4 523.8 564.4 532.7 569.1ZM381.9 395.1C382.2 386.9 382.4 378.8 382.7 370.6C387.1 374.6 392.2 377.9 397.6 380.6C405.4 384.4 413.9 386.7 422.5 386.9C428 387 433.5 386.3 439.1 385.5C437.5 390.5 435.9 395.4 435.3 400.6C434.3 408.6 435.4 417 438.2 424.6C439 426.8 439.9 429 441 431C435 437.7 428.9 444.5 422.9 451.2C412 449.2 401.1 447.2 390.1 445.2C395.7 454.8 401.3 464.4 406.8 474C401.5 483.8 396.3 493.5 391 503.3C399.3 501.5 407.5 499.7 415.8 498C411.3 505.9 406.9 513.8 401.3 520.6C397 525.9 392.1 530.6 386.9 534.9C383.5 537.8 379.1 538.6 374.9 537.2C370.7 535.8 367.6 532.5 366.6 528.2C364.8 520.8 362.6 513.5 359.8 506.4C357.4 500.1 354.6 493.9 351.6 487.9C347.7 480 346.7 471.3 348.7 462.7C350.6 454.7 352.4 446.7 354.3 438.6C354.5 437.8 355 437.3 355.8 437.2C356.6 437 357.3 437.4 357.7 438C361.5 443.5 365.2 449.1 369 454.7C371.9 444 374.9 433.3 377.8 422.6C388.5 419.5 399.1 416.4 409.8 413.3C400.5 407.3 391.2 401.2 381.9 395.1ZM488.7 482.8C490.1 475.3 495.1 468.7 501.6 465.2C509.6 460.9 519.8 461.3 528.3 465C535.6 468.1 541.6 473.6 545.3 480.5C549.5 488.4 550.7 498.2 548.8 506.8C546.8 516.2 541 524.2 533.6 530.1C523.6 538 510.4 541.9 497.6 544.1C481.7 546.8 466.2 546.7 450.8 546.6C437 546.6 423.2 546.5 409.5 548.3C407.4 548.6 405.3 548.9 403.3 549.2C401 549.6 399 548.6 398 546.5C397 544.5 397.3 542.2 399 540.6C404.4 535.3 409.5 529.8 414 523.8C419.4 516.7 423.9 508.9 428.5 501.2C434.6 507.6 440.7 513.9 446.7 520.3C447.8 509.3 449 498.2 450.1 487.2C458 483.4 465.8 479.7 473.7 475.9C472 481.5 471.5 487.7 472.4 493.6C473.3 499.9 475.8 506.1 479.8 511C483.2 515.2 487.7 518.6 492.8 520.7C499.5 523.4 507.2 524 514 523.1C519.6 522.4 524.6 520.8 529.3 517.7C532.4 515.7 535.3 513 537.5 509.8C538.8 507.8 539.8 505.6 540.4 503.3C541.2 500.1 541.1 496.7 540.1 493.3C539 489.8 536.9 486.3 533.7 484.7C530 482.9 524.9 483.6 521.3 486C518.1 488.2 516.1 491.8 515.4 495.3C515 497.3 515 499.3 515.6 501.8C515.9 503 516.3 504.3 518.9 506.5C516.7 507.1 514.5 507.7 512.1 508C506.1 508.7 499.4 507.2 494.9 503.2C489.3 498.5 487.3 490.2 488.7 482.8ZM475.1 457C478.2 457.5 481.4 457.5 484.6 457.5C481.2 461.8 477.8 466 475.4 470.9C466.7 467.1 458.1 463.2 449.4 459.4C448.5 452.9 447.7 446.5 446.8 440.1C447.2 440.6 447.6 441.1 448.1 441.6C455.1 449.5 464.9 455.5 475.1 457ZM433.9 251.7C446.9 257.4 458.5 266.5 466.2 278.3C473 288.7 476.7 301.2 476.5 313.6C476.3 325.7 472.3 337.6 465.1 347.5C458.3 356.9 448.8 364.4 437.8 367.6C429.6 370 420.5 369.9 412.3 367.5C404.8 365.3 397.8 361.2 392.5 355.5C387.6 350.4 384 344 382.7 337.1C381.3 330 382.4 322.3 385.7 315.7C388.8 309.3 394 303.7 400.4 300.9C405.5 298.7 411.4 298.2 416.9 299.5C421.2 300.6 425.2 302.8 428.2 305.9C431.3 309.1 433.5 313.2 434 317.7C434.4 322.1 433.2 326.8 430.4 330C428.7 332 426.5 333.5 424.3 334.9C423.5 333.4 422.1 332.1 420.6 331.2C418 329.5 415 328.9 412 329.3C407.9 329.9 403.8 332.5 402 336.2C400.7 338.9 400.6 342.2 401.2 345C401.8 347.5 403 349.6 404.5 351.4C406.6 353.7 409.4 355.3 412.5 356.2C416 357.2 419.8 357.3 423.3 356.8C429.7 355.8 435.3 352.7 439.8 348.3C444.8 343.5 448.4 337.2 450.3 330.5C452.5 322.6 452.2 314 449.3 306.5C446 298 439.4 290.9 431.3 286.5C420.8 280.9 407.9 279.7 396.8 283.5C385.7 287.3 376.5 295.9 370.8 306.3C366 315.1 363.9 325.1 364.7 334.9C365.6 345.3 369.7 355.4 376.2 363.6C376.8 364.3 377.4 365.1 378 365.8C371 371.4 364 377 357 382.6C346.6 378.8 336.1 375.1 325.7 371.3C329.6 381.7 333.5 392.1 337.5 402.4C332 409.5 326.4 416.7 320.9 423.8C319.8 420.2 318.8 416.6 318 413C314.6 396.8 315.4 379.9 318.7 362.7C319.7 357.5 322.6 353.2 327.1 350.3C330.5 348.1 333.9 346.2 337.6 344.8C338.9 344.3 340.3 344.5 341.4 345.3C345.4 348.2 350.2 348.2 354.2 345.3C358.2 342.4 359.7 337.8 358.1 333.1C356.6 328.5 352.6 325.6 347.7 325.7C342.8 325.8 338.9 328.7 337.5 333.4C337.1 334.6 336.2 335.6 335 336C334.3 336.3 333.5 336.5 332.8 336.8C331.2 337.5 329.6 338.3 328.1 339.1C327.4 339.5 326.6 339.4 326 338.9C325.4 338.4 325.2 337.6 325.4 336.9C330 322.1 335.9 307.1 342.1 292.3C342.4 291.5 342.8 290.7 343.1 289.9C344.6 286.3 347.3 283.5 350.9 281.8C355.7 279.6 360.6 277.5 365.7 276.2C367.5 275.7 369.3 275.3 371.1 275C373.1 274.6 375.1 275.2 376.6 276.7C380.3 280.2 385.3 281 389.8 278.7C394.3 276.4 396.7 271.9 395.9 266.8C395.1 261.7 391.6 258.1 386.6 257.2C381.6 256.3 377 258.4 374.5 262.9C373.6 264.6 372 265.7 370.1 266C368.5 266.3 367 266.6 365.4 267C363.4 267.5 361.5 268.1 359.5 268.7C358.4 269.1 357.2 268.7 356.5 267.7C355.8 266.7 355.9 265.5 356.7 264.6C367 252.7 381 246 396.3 245C396.4 245 396.5 245 396.6 245C409.4 244.2 422.2 246.6 433.9 251.7ZM331 521.4C334.6 537.3 336 553.8 335.6 570C330.3 562.6 325.1 555.2 319.8 547.9C323.5 539 327.3 530.2 331 521.4ZM305.3 523.9L299.9 525.6L299.7 525.7L299.6 525.6L299.4 525.4L298.9 525L298 524.2L296.2 522.6L288.9 516.3L281.6 510L279.8 508.4L279.6 508.2L279.8 508.1L280.6 507.7L282.3 506.9L285.5 505.1L288.6 503.1L291.6 500.9L294.4 498.5L297 496L299.5 493.3L301.8 490.5L304 487.6L306.1 484.6L308 481.5L309.8 478.3L311.4 475L312.8 471.6L319 485.6L321.9 492.7L324.6 499.9L327.1 507.2L329.3 514.6L329.6 515.5L329.7 515.7V515.8V515.9L327 517L305.3 523.9ZM334.3 447.5C334.1 448.3 333.5 448.9 332.6 449C331.7 449.1 331 448.7 330.7 447.9C327.6 441.5 324.7 435 322.4 428.5C327.1 428.3 331.7 428.1 336.4 427.8C337 427.8 337.6 428 337.9 428.5C338.2 429 338.4 429.6 338.3 430.2C337 436 335.7 441.8 334.3 447.5ZM368.9 192.7C368.6 190.2 368.3 187.8 367.8 185.3C374.6 187.5 381.4 189.6 388.2 191.8C382.8 198.6 377.4 205.3 372 212.1C371.5 212.7 370.7 213 369.9 212.6C369.1 212.2 368.7 211.6 368.8 210.8C369.4 204.7 369.5 198.6 368.9 192.7ZM403.6 227.3C400.1 227.2 396.7 227.3 393.2 227.6C389.7 227.9 386.2 228.4 382.7 229C381.7 229.2 380.7 228.8 380.1 227.9C379.5 227 379.6 225.9 380.2 225.1C385.9 217.4 391.6 209.7 397.3 202C399.5 210.4 401.5 218.8 403.6 227.3ZM342.9 82C343.5 80.6 344.2 79.3 345 78C349.3 70.8 356.1 65 363.9 62C374 58.1 385.9 59 395.7 63.9C403.4 67.8 409.9 74.3 412.8 82.4C415.3 89.2 415.2 97.1 412 103.6C409.5 108.7 405 112.9 399.6 114.7C394.5 116.5 388.6 116.2 384 113.4C380.5 111.3 377.7 107.8 376.8 103.9C376.2 101.5 376.4 99 376.6 96.5C380.3 96.4 383.8 96.2 386.4 94.1C390.4 90.9 392.2 83.3 390.2 77.8C388.4 73 383.8 69.7 379.1 69.3C373.3 68.7 367.5 72.5 364.1 77.2C360.5 82.1 359.5 88 359.4 93.6C359.3 99.9 360.2 105.8 362.8 111.3C365.3 116.7 369.5 121.7 374.5 125.1C379.5 128.5 385.5 130.4 391.5 130.7C391.6 141 391.6 151.4 391.7 161.7C383.2 167 374.7 172.2 366.2 177.5C361.4 159.5 352.4 141.8 346.7 122.9C343.9 113.7 342 104.3 341 94.7C340.3 90.4 341 86 342.9 82ZM321.5 121.4C321.6 121.9 321.8 122.5 321.9 123C322.9 127 324.1 130.9 325.6 135.5C326.1 137.1 325.6 138.8 324.2 139.8C322.8 140.8 321.1 140.7 319.7 139.7C314.9 135.9 310 132.1 305.2 128.3C310.6 125.9 316 123.6 321.5 121.4ZM295.2 140.6C304.5 148.1 315 155.2 325.8 163.1C336.7 171.1 338.8 178.9 340.2 185.8C343.8 203.7 342.3 215.2 338 225.4C337.7 226.7 336.6 227.5 335.2 227.5C333.9 227.5 332.8 226.6 332.6 225.3C332.1 222.9 331.6 220.5 331 218.2C327 202.1 319.7 186.4 308.3 174.3C303.5 169.2 298 164.8 292 161.2C293.1 154.3 294.2 147.5 295.2 140.6ZM212.1 239.1C206.4 227.9 205.6 214.7 209.2 203C212.2 193.1 218.5 184.2 226.7 178C234.9 171.7 245.2 168 255.5 167.7C267.6 167.4 279.9 171.7 289.4 179C299 186.4 305.8 196.9 311.3 208.5C317.8 222.2 322.3 237.6 323.5 250.3C324.2 257.2 323.8 263.3 320.6 272C317.7 278.6 314.8 285.2 311.9 291.8C311.2 293.5 310.4 295.2 309.7 296.9C308.7 299.2 306.8 300.7 304.3 301.1C301.8 301.5 299.5 300.6 298 298.6C296.7 297.1 295.5 295.5 294.2 294C292.6 292.1 292.2 289.7 293 287.3C294.6 282.8 294 278 291.3 274C288.6 270 284.5 267.6 279.7 267.3C289.5 259.5 296.8 248.1 298.4 235.9C299.5 227.8 298.1 219.4 294.4 212C291.2 205.6 286.3 200.1 280.1 196.7C274.9 193.9 268.8 192.7 262.4 193.2C256.5 193.7 250.5 195.6 245.5 198.4C240.5 201.2 236.6 204.9 233.9 209.7C232.3 212.5 231.1 215.7 231 219.3C230.8 222.6 231.5 226.3 233.5 228.9C235.3 231.3 238.1 232.8 241 233.2C244.8 233.8 248.8 232.4 251.6 230.1C253.8 228.3 255.4 225.9 256.4 223.3C257.2 221.3 257.6 219.3 257.6 217.2C257.6 215.8 257.3 214.3 257 212.9C258.8 211 261.5 209.8 264.2 209.5C268.8 209.1 273.7 211.5 277 215C281.1 219.3 282.6 225.3 282.4 231C282.2 236.3 280.5 241.4 277.7 245.8C274.5 250.8 269.9 254.8 264.6 257.7C257.3 261.6 248.8 263.2 240.8 261.8C228.7 259.8 217.9 250.5 212.1 239.1ZM273.7 334.8C265.7 325.8 257.5 316.8 247.6 310.3C239.9 305.2 231.2 301.6 222.5 298.1C224.2 290.3 225.9 282.5 227.5 274.7C234.3 277.5 241.7 279 249 278.9C254.6 278.8 260.2 277.7 265.4 275.7C262.8 280.8 263.2 286.6 266.6 291.3C269.9 296 275.3 298.3 281 297.5C283.4 297.2 285.7 298.1 287.3 300C290.2 303.6 293.1 307.1 296.1 310.7C299.7 315 300.7 320.6 298.9 325.9C295.7 335.6 292.9 345.2 290.9 354.9C285.2 348.2 279.5 341.5 273.7 334.8ZM194.7 441.4C199 428.9 205.4 416.9 215.2 408.3C222.5 401.9 231.6 397.4 241.3 396.2C255.9 394.3 271.7 399.7 281.9 409.9C287.2 415.1 290.9 421.6 293.8 428.7C295.8 433.6 297.4 438.9 298.3 444C299.7 451.9 299.5 459.5 297.1 466.7C295 473 291.1 479 286 483.9C279.3 490.5 270.3 495.3 261.2 495.5C254.7 495.6 248 493.3 242.5 489.3C237.1 485.3 232.9 479.6 231.5 473.3C230.4 468.1 231.3 462.4 233.3 457.5C234.2 455.3 235.3 453.2 237.3 451.5C239.6 453.1 241.7 453.5 243.3 453.8C245.4 454.1 247 454 248.7 453.7C252 453 255.9 451.1 258.2 447.6C260.1 444.6 260.8 440.4 260.1 436.6C259.3 432.8 257.1 429.3 254.2 427.4C251.2 425.4 247.6 424.9 244.5 425.2C239.8 425.6 236.4 427.8 233.8 430.1C232.1 431.6 230.8 433.1 229.5 434.6C225.6 439.3 222 444.7 219.6 451.1C217.3 457.3 216.3 464.3 216.7 471.3C217.1 478.3 219 485.1 222.2 491C225.9 497.7 231.3 503.2 238 506.8C246.5 511.4 257.1 513.1 266.8 511.9C268.8 511.6 270.7 511.3 272.6 510.8C272.5 520 272.4 529.1 272.4 538.3C262.2 544.4 252 550.6 241.8 556.7C253.1 560.5 264.4 564.2 275.7 568C277.7 576.6 279.7 585.2 281.7 593.7C273.2 586.4 264.1 579.8 254.9 573.3C246.2 567.2 237.4 561.2 229.3 554.3C218 544.7 207.8 533.4 200.7 520.4C194.9 509.9 191.1 498.2 189.7 486.3C187.8 471.1 189.8 455.9 194.7 441.4ZM180.5 516.5C183.5 523.7 187.4 530.6 191.9 537C196.9 544 202.6 550.4 208.4 556.8C195.7 556.2 182.9 555.6 170.4 557.4C170.1 557.4 169.7 557.5 169.4 557.6C167.7 548.9 165.9 540.3 164.2 531.6C169.7 526.5 175.1 521.5 180.5 516.5ZM269.5 791.7C268.6 780.4 267.6 769.1 266.7 757.8C258.7 765.8 250.7 773.9 242.7 781.9C236.2 780.4 229.7 778.8 223.2 777.3C224.3 776.4 225.3 775.5 226.3 774.6C237.9 764 247.1 750.7 252.7 736.1C253.2 734.9 253.6 733.6 254 732.4C262.3 735.4 270.4 739.2 278.3 743.2C282.8 745.4 285.4 749.8 285.3 754.8C284.9 770.4 286.3 786.3 289.3 801.9C282.8 798.4 276.2 795 269.5 791.7ZM239.5 712.1C236.9 711.7 234.3 711.4 231.7 711.2C228.9 705 226.1 698.7 223.3 692.5C227.2 686.8 231.1 681 235.1 675.3C235.8 677 236.5 678.7 237 680.4C240.2 690.5 240.9 701.5 239.5 712.1ZM292.6 709.1C292.3 710.1 292 711.2 291.7 712.3C291.4 713.3 291.2 714.3 290.9 715.3C289.9 719 287.5 721.9 284.1 723.5C280.7 725.1 276.8 725.1 273.4 723.5C271.9 722.8 270.5 722.2 269 721.5C265.4 719.9 261.7 718.4 258 717C259.3 709.1 259.6 701 258.8 693C257.2 677 251.1 661.4 241 648.8C238.7 646 236.3 643.3 233.7 640.8C233.3 640.5 233.2 640 233.4 639.5C233.6 639 233.9 638.7 234.5 638.7C237.6 638.4 240.5 637.3 243 635.5C245 634.1 247.5 634 249.6 635.1C251 635.9 252.4 636.6 253.8 637.5C262.9 643.1 270.7 651 277.1 659.6C282.1 666.3 286.2 673.4 290.1 680.7C294.5 689.5 295.5 699.5 292.6 709.1ZM309.7 667.4C308.7 669.6 307.6 671.9 306.6 674.1C306 675.4 304.8 676.2 303.4 676.3C302 676.4 300.7 675.8 300 674.5C296.3 668.6 292.5 662.7 288.6 656.7C281.9 646.4 274.8 636.1 265.3 628.8C261.7 626 257.8 623.7 253.7 621.5C252 620.6 250.8 619 250.5 617.1C248.7 607 240.5 600.9 230.4 602.1C220.3 603.2 213.6 611 214.1 621.2C214.2 622.5 213.6 623.7 212.5 624.4C211.4 625.2 210.1 625.3 208.9 624.8C207.5 624.3 206.1 623.7 204.6 623.3C189.7 618.5 173.2 618.5 158.3 624.5C145.1 629.8 133.1 639.7 127.6 652.3C124.2 660 123.2 668.6 123.3 677.1C123.4 685.6 124.4 694.1 129.3 702.1C132.2 706.9 136.5 711.6 142.2 713.1C145.9 714 150.2 713.7 153.8 712C158.6 709.8 162.2 705.4 163.5 700.2C164.7 695.3 163.8 689.8 161.1 685.5C159 682.1 155.8 679.4 152 678.2C149.8 677.5 147.4 677.3 143.9 677.5C142.7 673.9 142.5 669.4 143.4 665.2C144.9 658.6 149 652.6 154.2 648.3C160.8 642.9 169 640.1 177.4 639.2C186.1 638.3 195 639.5 203 642.8C211.4 646.2 218.8 651.8 224.8 658.7C228.6 663.1 231.7 667.9 234.2 673.1C227.2 673.9 220.2 674.6 213.2 675.4C208.3 669.1 203.5 662.8 198.6 656.5C197 664.3 195.3 672 193.7 679.8C186.2 682.5 178.7 685.1 171.3 687.8C178.2 691.8 185.1 695.7 192 699.7C192.2 706.4 192.4 713.1 192.6 719.8C191.9 720.1 191.1 720.5 190.4 720.8C186.1 722.8 181.9 725 177.7 727.2C170.8 720.7 161.3 720 153.5 725.4C145.7 730.8 143.1 739.9 146.7 748.7C150.4 757.5 158.7 762 168.1 760.2C177.4 758.4 183.6 751.2 183.8 741.7C187.1 740 190.5 738.4 193.9 736.7C199.8 733.9 205.8 731.2 212.1 729.3C218 727.5 224.1 726.4 230.2 726.6C232.2 726.7 234.1 726.9 236.1 727.1C233.5 734.5 229.9 741.5 225.3 747.8C219.6 755.6 212.3 762.3 204.2 767.8C195.9 773.3 186.7 777.6 177 779.6C163.7 782.3 149.3 780.9 136.7 775.7C126.2 771.4 116.9 764.6 109.3 756.3C101.8 748.3 95.9 738.9 91.5 728.8C84.5 712.8 81.3 695.2 82 677.7C82.6 664 85.6 650.3 91.3 637.9C99.3 620.3 112.7 605.1 128.8 594C145 583 164.3 576 184 574.8C202 573.7 220.3 577.3 236.5 584.9C251.4 591.9 264.6 602.2 276.1 614.1C286.6 624.9 295.8 636.9 303 650C305.4 654.3 307.6 658.8 309.6 663.3C310.3 664.6 310.3 666.1 309.7 667.4ZM223 711.3C219.6 711.6 216.3 712.1 213 712.8C208.6 713.8 204.4 715.1 200.2 716.7C203.6 713.7 206.9 710.6 210.2 707.6C214.4 708.8 218.7 710.1 223 711.3ZM290 601.1C289 600.1 288 599.1 287 598.2C293 590.1 299 581.9 305 573.8C315.1 574.7 325.2 575.6 335.4 576.4C334.4 593.2 331.5 609.6 327.1 624.4C325.2 630.7 323.1 636.8 320.7 642.6C312.6 627.4 302.2 613.2 290 601.1ZM533.3 722.1C530 732.8 523.8 742.5 515.6 750C507.5 757.3 497.6 762.6 486.9 765.2C475.1 768.1 462.3 767.9 450.9 764.3C439.4 760.7 429.2 753.6 418.1 748.3C408 743.5 397.2 740.1 386.1 739.2C382.9 738.9 380.1 737.2 378.4 734.5C376.7 731.7 376.4 728.5 377.6 725.5C379.2 721.5 380.8 717.5 382.4 713.5C383.6 710.6 385.9 708.5 389 707.6C396.1 705.6 400.7 699.9 401.2 692.5C401.6 685.1 397.7 678.9 390.8 676.1C384 673.3 376.8 675.1 371.9 680.6C367.1 686.2 366.4 693.5 370.1 699.9C371.7 702.7 371.9 705.9 370.7 708.9C368.9 713.2 367 717.5 364.9 721.7C362.5 726.7 359.8 731.5 357.1 736.3C354.5 740.8 350.6 744.3 345.8 746.4C344.7 746.9 343.5 747.4 342.4 748C338.3 750 333.8 749.7 329.9 747.2C326.1 744.7 324 740.6 324.2 736.1C324.6 726.4 326 716.9 328.2 707.6C328.7 705.4 329.3 703.2 329.9 701C333 690.1 340.2 681.3 350.2 676C358.3 671.8 366.4 667.6 374.5 663.5C383.4 659.1 392.3 654.8 401.2 650.6C401.2 658.4 401.2 666.2 401.3 673.9C410.9 665.7 420.4 657.5 430 649.2C436.4 651.2 442.7 653.3 449.1 655.3C442.3 662.6 437.2 671.4 435.2 681C432.9 692.1 434.8 704.3 440.2 714.3C444.9 723 452.2 730.1 460.9 734.6C470 739.4 480.7 741.4 490.7 739.5C499.3 737.9 507.4 733.3 513.2 726.5C519 719.8 522.6 710.8 521.1 701.6C519.9 694.2 515.3 686.5 510.1 681.4C505.7 677.1 500.7 674.7 494.3 673.3C488.8 672.2 482.3 671.8 477 674.1C472.8 675.9 469.4 679.5 468.1 684C466.9 687.8 467.3 692.2 469 695.6C470.5 698.5 473.1 700.6 476 701.6C479.5 702.9 483.3 702.7 486.7 701.5C489 700.7 491.2 699.4 492.8 697.7C493.6 696.9 494.4 695.9 495.1 694.9C497.4 695.9 499.8 696.8 501.5 698.5C502.9 699.9 503.8 701.8 504.2 703.7C504.7 707 503.3 710.4 501.3 713.3C498.6 717.1 494.8 719.8 490.6 721.2C484.8 723.2 478.2 722.6 472.3 720.4C465.3 717.7 459.4 712.4 455.8 705.9C452.8 700.6 451.4 694.3 451.9 688.3C452.5 681.1 455.8 674.1 460.7 668.6C468.2 660.2 479.4 654.9 490.4 654.8C499.6 654.7 508.7 658.3 516.1 663.8C523.7 669.5 529.5 677.3 532.7 686.1C536.8 697.8 536.8 710.5 533.3 722.1ZM566 730.2C562.3 738.1 558.5 746 554.8 753.8C553.5 753.9 552.2 754.1 550.9 754.2C548.8 754.4 546.8 754.1 544.9 753.4C544.7 753.3 544.4 753.2 544.2 753.1C542.8 752.5 541.8 751.4 541.3 750C540.8 748.6 541 747.1 541.8 745.8C545.2 740.3 547.9 734.4 549.9 728.3C553.4 717.1 554.4 705.1 552.7 693.6C552.6 692.8 552.5 692.1 552.3 691.3C557.6 695.1 562.9 698.9 568.2 702.8C567.4 711.9 566.7 721.1 566 730.2Z" />
</svg>
