<?xml version="1.0" encoding="utf-8"?>
<svg width="108" height="170" viewBox="0 0 108 170" xmlns="http://www.w3.org/2000/svg">
  <path stroke-width="4"
        stroke="forestgreen"
        fill="darkred"
        d="M104.77 106.726C106.2 111.106 106.39 115.956 105.29 120.436C104.64 123.056 103.56 125.545 102.01 127.745C100.29 130.205 97.9901 132.296 95.4101 133.776C92.7601 135.306 89.8301 136.196 86.8701 137.076C82.9601 138.236 79.0301 139.365 75.5201 141.245C69.99 144.195 65.5201 148.986 60.6101 153.066C57.1901 155.916 53.5601 158.406 49.7501 160.686C45.7401 163.086 41.5401 165.246 37.0501 166.546C32.2301 167.936 27.0801 168.356 22.0901 167.526C18.0701 166.846 14.1601 165.366 10.9401 162.936C7.9801 160.686 5.6101 157.635 4.0001 154.245C2.7701 151.625 1.9901 148.796 2.0001 145.886C2.0001 143.556 2.51007 141.156 3.60007 139.166C5.62007 135.476 9.60006 133.176 13.4601 130.976C17.8601 128.446 22.0901 126.046 25.6201 122.786C28.4401 120.186 30.8201 117.026 32.9001 113.586C34.8201 110.406 36.4901 106.986 36.8601 103.486C37.4301 98.0855 34.9001 92.4955 32.5401 87.2855C31.4001 84.7755 30.3001 82.3455 29.2001 79.9155C28.4301 79.8255 27.6701 79.7255 26.9901 79.4555C25.5501 78.8655 24.5001 77.4755 23.5701 76.0755C21.2701 72.6155 19.7001 69.1356 17.6601 65.7355C16.5601 63.9155 15.3301 62.1155 14.7801 60.0355C14.3101 58.2155 14.3601 56.1755 14.9901 54.4455C16.1501 51.1855 19.3001 48.9755 22.4301 47.0355C29.0001 42.9755 35.5001 40.1355 42.2801 37.5155C48.6101 35.0655 55.1801 32.8155 61.7801 31.1355C63.9001 30.5955 66.0201 30.1155 68.2001 29.6255C68.7701 29.4955 69.3501 29.3655 69.9401 29.2755C69.6601 25.0955 69.4001 21.4955 69.0401 17.9355C68.7601 15.2255 68.4201 12.5255 68.6701 9.70552C68.7801 8.41552 69.0101 7.08551 69.6901 6.06551C70.4001 5.00551 71.5801 4.26554 72.8801 3.78554C74.0201 3.37554 75.2401 3.1655 76.2901 3.5655C76.9701 3.8255 77.5901 4.3455 78.0301 4.9355C78.3401 5.3355 78.5601 5.76554 78.7301 6.22554C78.8401 6.52554 79.1101 6.69553 79.4301 6.65553C79.5901 6.63553 79.7401 6.60554 79.8701 6.53554C80.3101 6.30554 80.5401 5.73555 80.7301 5.17555C80.9601 4.48555 81.1301 3.81556 81.5201 3.30556C82.2201 2.37556 83.6501 1.94551 84.9601 2.00551C85.9101 2.05551 86.8001 2.36553 87.4501 2.96553C88.1601 3.63553 88.5801 4.66551 88.6901 5.75551C88.7901 6.88551 88.5601 8.09553 88.0001 8.96553C87.5201 9.70553 86.8101 10.1955 86.0801 10.5355C85.2301 10.9255 84.3601 11.0955 83.3601 10.9355C82.7801 10.8455 82.1601 10.6555 81.8101 10.3155C81.6001 10.1055 81.5001 9.83554 81.2301 9.72554C80.9901 9.62554 80.6301 9.64555 80.3101 9.67555C80.1401 9.69555 79.9901 9.7155 79.8301 9.7455C79.3401 9.8255 79.0001 10.1856 78.9301 10.6756C78.8001 11.5856 78.6101 12.4955 78.4401 13.3955C77.8901 16.2855 77.5001 18.9055 76.7201 21.4855C75.9801 23.9255 74.9001 26.3455 73.5301 29.3555C74.7501 29.6955 75.9201 30.3855 76.8401 31.2655C78.5001 32.8355 79.4001 34.9955 80.2501 37.1555C81.1301 39.4055 81.9601 41.6455 82.4901 43.9155C83.1801 46.8955 83.3601 49.9356 83.4401 53.1756C83.4801 54.7756 83.5001 56.4255 82.9301 57.8455C82.5701 58.7355 81.9901 59.5356 81.4001 60.1756C81.2501 60.3356 81.1001 60.4855 80.9101 60.6655C81.1801 63.4055 81.4501 66.1555 81.8601 68.8955C82.3301 72.0955 83.0001 75.2855 84.2201 78.2655C85.3401 80.9855 86.9201 83.5156 88.7601 85.8056C91.7201 89.4756 95.3801 92.4955 98.4801 96.0755C101.19 99.2155 103.48 102.776 104.77 106.726ZM75.1501 13.4455C75.3001 12.8155 75.4701 12.1955 75.6401 11.5855C75.0701 11.6955 74.5101 11.8155 74.0201 11.6255C73.7201 11.5155 73.4601 11.2855 73.2201 11.0355C72.9901 10.8055 72.7801 10.5556 72.5801 10.3056C72.4901 10.7856 72.4001 11.2655 72.3501 11.7455C72.1801 13.1755 72.3201 14.6355 72.3901 16.0855C72.4701 17.8555 72.4601 19.6155 72.4501 21.3755C72.9501 20.4555 73.4501 19.5256 73.8301 18.5556C74.4601 16.9256 74.7501 15.1555 75.1501 13.4455Z" />
</svg>
